HIERARCHY
ROOT Hips
{
    OFFSET 0.000000 0.000000 0.000000
    CHANNELS 6 Xposition Yposition Zposition Zrotation Xrotation Yrotation
    JOINT Spine
    {
        OFFSET -0.000000 14.517291 0.000000
        CHANNELS 3 Zrotation Xrotation Yrotation
        JOINT Spine1
        {
            OFFSET -0.000000 37.558300 0.000000
            CHANNELS 3 Zrotation Xrotation Yrotation
            JOINT Neck
            {
                OFFSET -0.000000 37.404057 3.400369
                CHANNELS 3 Zrotation Xrotation Yrotation
                JOINT Head
                {
                    OFFSET -0.000000 24.785618 -3.540803
                    CHANNELS 3 Zrotation Xrotation Yrotation
                    End Site
                    {
                        OFFSET -0.000000 35.408028 0.000000
                    }
                }
            }
            JOINT LeftShoulder
            {
                OFFSET 6.992933 33.973492 -0.192664
                CHANNELS 3 Zrotation Xrotation Yrotation
                JOINT LeftArm
                {
                    OFFSET 21.527611 0.000000 0.000000
                    CHANNELS 3 Zrotation Xrotation Yrotation
                    JOINT LeftForeArm
                    {
                        OFFSET 56.353916 0.000000 0.000000
                        CHANNELS 3 Zrotation Xrotation Yrotation
                        JOINT LeftHand
                        {
                            OFFSET 47.774071 0.000000 0.000000
                            CHANNELS 3 Zrotation Xrotation Yrotation
                            End Site
                            {
                                OFFSET 26.556021 0.000000 0.000000
                            }
                        }
                    }
                }
            }
            JOINT RightShoulder
            {
                OFFSET -7.065357 33.973492 -0.192664
                CHANNELS 3 Zrotation Xrotation Yrotation
                JOINT RightArm
                {
                    OFFSET -21.527611 0.000000 0.000000
                    CHANNELS 3 Zrotation Xrotation Yrotation
                    JOINT RightForeArm
                    {
                        OFFSET -56.353916 0.000000 0.000000
                        CHANNELS 3 Zrotation Xrotation Yrotation
                        JOINT RightHand
                        {
                            OFFSET -47.774071 0.000000 0.000000
                            CHANNELS 3 Zrotation Xrotation Yrotation
                            End Site
                            {
                                OFFSET -26.556021 0.000000 0.000000
                            }
                        }
                    }
                }
            }
        }
    }
    JOINT LeftUpLeg
    {
        OFFSET 17.704014 0.000000 0.000000
        CHANNELS 3 Zrotation Xrotation Yrotation
        JOINT LeftLeg
        {
            OFFSET -0.000000 -81.181816 0.000000
            CHANNELS 3 Zrotation Xrotation Yrotation
            JOINT LeftFoot
            {
                OFFSET -0.000000 -62.821102 0.000000
                CHANNELS 3 Zrotation Xrotation Yrotation
                JOINT LeftToeBase
                {
                    OFFSET -0.000000 -11.507608 26.556021
                    CHANNELS 3 Zrotation Xrotation Yrotation
                    End Site
                    {
                        OFFSET -0.000000 0.000000 7.081605
                    }
                }
            }
        }
    }
    JOINT RightUpLeg
    {
        OFFSET -17.704014 0.000000 0.000000
        CHANNELS 3 Zrotation Xrotation Yrotation
        JOINT RightLeg
        {
            OFFSET -0.000000 -81.181816 0.000000
            CHANNELS 3 Zrotation Xrotation Yrotation
            JOINT RightFoot
            {
                OFFSET -0.000000 -62.821102 0.000000
                CHANNELS 3 Zrotation Xrotation Yrotation
                JOINT RightToeBase
                {
                    OFFSET -0.000000 -11.507608 26.556021
                    CHANNELS 3 Zrotation Xrotation Yrotation
                    End Site
                    {
                        OFFSET -0.000000 0.000000 7.081605
                    }
                }
            }
        }
    }
}
MOTION
Frames:    4
Frame Time:    0.008333
20.203846    148.322922    -37.860424    2.327371    1.803131    -35.135910    0.257378    1.010970    -6.112583    0.632113    1.353830    -2.045752    17.385750    -3.593079    11.924135    -11.281526    11.678843    8.806904    14.691808    -0.497971    -25.428703    -10.378471    -18.522408    -43.955833    10.018900    -41.609409    -22.653524    -25.571070    -30.885111    -46.935059    -6.676275    0.638390    -5.721657    34.115551    4.890121    73.836861    9.752405    3.872994    107.712425    2.317833    -9.136570    19.332588    17.986326    -36.062828    -10.683945    -14.419952    30.508095    -14.527921    -10.581297    -2.691985    35.617023    0.000000    0.000000    0.000000    -3.719470    -7.928860    18.674656    2.810734    46.887703    5.584134    -7.882116    -39.690910    -16.123863    0.000000    0.000000    0.000000    
20.192873    148.314911    -37.852348    2.318259    1.802204    -35.157356    0.250623    0.996886    -6.088621    0.632298    1.355082    -2.037784    17.395882    -3.572171    11.928630    -11.295455    11.672003    8.811709    14.673270    -0.484904    -25.418427    -10.350525    -18.487978    -43.915413    9.959101    -41.573200    -22.684107    -25.554300    -30.862274    -46.917480    -6.697936    0.648518    -5.702924    34.106865    4.883929    73.819588    9.769032    3.913491    107.708870    2.323139    -9.117572    19.337856    17.996269    -36.051029    -10.713026    -14.410579    30.529228    -14.530999    -10.601547    -2.750861    35.629105    0.000000    0.000000    0.000000    -3.719609    -7.934658    18.653975    2.817947    46.908119    5.558202    -7.845605    -39.696953    -16.067358    0.000000    0.000000    0.000000    
20.185318    148.306122    -37.841579    2.309774    1.799045    -35.187408    0.248002    0.976035    -6.061698    0.619746    1.377894    -2.028821    17.410164    -3.570970    11.939059    -11.301293    11.670507    8.819773    14.664136    -0.493171    -25.394897    -10.334970    -18.465263    -43.882454    9.887254    -41.521954    -22.723787    -25.545166    -30.821800    -46.894596    -6.704916    0.640320    -5.688972    34.076313    4.893086    73.811531    9.758522    3.908674    107.704544    2.308020    -9.109684    19.333290    18.004625    -36.029415    -10.711346    -14.377850    30.552162    -14.559373    -10.619512    -2.820628    35.647217    0.000000    0.000000    0.000000    -3.721450    -7.942722    18.645967    2.822234    46.934196    5.545076    -7.809164    -39.712864    -16.013149    0.000000    0.000000    0.000000    
20.184029    148.293213    -37.831383    2.304337    1.789453    -35.220284    0.237319    0.969458    -6.031847    0.618750    1.388727    -2.018951    17.444641    -3.551222    11.953794    -11.352311    11.655460    8.828316    14.652088    -0.492407    -25.371433    -10.314524    -18.439737    -43.850571    9.826649    -41.487450    -22.762535    -25.530430    -30.796598    -46.890533    -6.724372    0.650005    -5.683215    34.056519    4.888394    73.822609    9.759289    3.896497    107.702278    2.290612    -9.124528    19.355560    18.009489    -36.004135    -10.693812    -14.344348    30.583532    -14.595366    -10.686331    -2.964780    35.700874    0.000000    0.000000    0.000000    -3.730428    -7.955876    18.641327    2.833560    46.974949    5.546386    -7.789316    -39.714634    -15.986923    0.000000    0.000000    0.000000    
